<svg xmlns="http://www.w3.org/2000/svg" width="128" height="128" viewBox="0 0 128 128"><defs><style>.cls-1{fill:#231f20;}</style></defs><title>Free Icons</title><g id="Layer_50" data-name="Layer 50"><path class="cls-1" d="M29.68,103.91c.15,0,0,.26-.23.53a1.52,1.52,0,0,1-.46.27h-.34a3,3,0,0,0-.3-.13c-.07,0-.14,0-.17,0h0a1.4,1.4,0,0,0,.1-.16c.06-.1.09-.12.12-.18a1.31,1.31,0,0,0,.05-.15.64.64,0,0,0,0-.07c0-.08,0,0,0,0a.57.57,0,0,0,.11.16c.08.12.14.14.28.26a.8.8,0,0,0,.21.15c.07,0,.16.08.13.08l0,0s0,.09-.05.16-.07.3-.11.47a.42.42,0,0,1-.11.22,1.42,1.42,0,0,0-.24.87s0,.1.05.15a2.25,2.25,0,0,1,0,1,7.37,7.37,0,0,0-.38.81s0,.09-.08.12-.17.16-.19.25a1.21,1.21,0,0,1-.14.37c0,.06-.15.11-.24.17a.67.67,0,0,1-.39,0c-.09-.06-.23,0-.34,0h-.13a3,3,0,0,1-.52-.78l-.06-.55c0-.28-.06-.57-.08-.63s0-.13.07-.19-.09-.88-.08-.92,0-.37.17-.53a.1.1,0,0,0,0-.1,3.09,3.09,0,0,1,.24-1c.06-.16.08-.34.14-.53,0,0,.05,0,.07-.08s.07-.08.08-.12a1.72,1.72,0,0,1,.51-.78,1.74,1.74,0,0,1,.71-.39,1.59,1.59,0,0,1,.91.06,1.06,1.06,0,0,1,.24.15,2.8,2.8,0,0,1,.22.25,3.9,3.9,0,0,0,.22.37C29.71,103.56,29.62,103.9,29.68,103.91Z"/><path class="cls-1" d="M46.69,36.13c.17.68.22,1.39.39,2.08.06.25.18.49.24.74a12.89,12.89,0,0,0,.9,2.53,3.13,3.13,0,0,0,.71.89c.37.31.72.44,1,.69.1.09.09.46-.13.8a1,1,0,0,1-1.15.45,4.13,4.13,0,0,1-1.58-1.38,5.11,5.11,0,0,1-.79-1.69c-.19-.7-.53-1.34-.72-2a18.09,18.09,0,0,1-.47-2.28c0-.48-.07-1-.11-1.42,0-.72,0-1.44,0-2.15a11.54,11.54,0,0,1,0-1.66,2.2,2.2,0,0,1,.06-.37c.14-.46.29-.58.51-.59a.39.39,0,0,1,.15,0c.16,0,.21.23.23.53A22.63,22.63,0,0,0,46.31,34c.12.7.25,1.4.42,2.09Z"/><path class="cls-1" d="M23.91,23.91c.07-.25.39-.11.78.28a2.32,2.32,0,0,1,.4.67,3.55,3.55,0,0,1,0,.45s-.11.21-.19.4a1.18,1.18,0,0,0-.09.46,1.34,1.34,0,0,1-.08.54l-.21.94A3.78,3.78,0,0,1,23.89,29a1.53,1.53,0,0,1-.48.44,6.89,6.89,0,0,0-1.35,1c-.06,0-.13.08-.14.2s-.23.31-.43.52a2.6,2.6,0,0,1-.44.43,3.25,3.25,0,0,0-.85.59s0,.09-.15.08-.26.11-.33.21-.22.24-.36.37A1.49,1.49,0,0,1,19,33a.68.68,0,0,1-.44-.13c-.07-.11-.25-.09-.38-.12l-.14,0a2.83,2.83,0,0,1-.2-.71,1.83,1.83,0,0,1,0-.8,8.12,8.12,0,0,1,.43-.9c.24-.44.56-.86.61-1a.53.53,0,0,1,.29-.19s.26-.31.52-.58l.52-.52c.23-.15.37-.36.67-.33a.16.16,0,0,0,.12-.07c.27-.25.48-.37.59-.47s.08-.18.13-.32,0,0,.06-.08a.23.23,0,0,0,.08-.11,9.83,9.83,0,0,1,.62-1.83c.07-.18.76-.67.88-.79S23.88,24,23.91,23.91Z"/><path class="cls-1" d="M45.14,83.25l.44.08c.05,0,.09,0,.14,0a3,3,0,0,0,.44.1s.07,0,.05,0-.07-.11,0-.1a3,3,0,0,1,.59.19c.29.12.55.31.52.42s0,.18-.14.3a1.16,1.16,0,0,1-.3.24.68.68,0,0,1-.5.09c-.18,0-.29.06-.42.07a3,3,0,0,1-.41,0h-.23c-.11,0-.22,0-.27.05a.06.06,0,0,0,0,.09v0L45,84.74l0,0-.05,0h-.38a.51.51,0,0,1-.53-.23.75.75,0,0,1,.14-.78,1.36,1.36,0,0,1,.22-.21l.21-.12a1.23,1.23,0,0,1,.53-.11Z"/><path class="cls-1" d="M34.73,83.22a20,20,0,0,0,3.29.35c.41,0,.81-.06,1.21,0a22.88,22.88,0,0,0,4.29-.45c.56-.14,1.34-.4,1.38-.62a2.37,2.37,0,0,0,.21-1c0-.19,0-.39.06-.62a1.9,1.9,0,0,1,.28-.83c.32-.28.49.11.65.39a1.25,1.25,0,0,1,.62,1,3.91,3.91,0,0,1-.34,1.63,2.46,2.46,0,0,1-.25.44,2.25,2.25,0,0,1-.53.47,5.1,5.1,0,0,1-.76.36,10.49,10.49,0,0,1-2.69.59c-1.07.09-2.16.34-3.25.38a22.77,22.77,0,0,1-3.6-.12c-.74-.1-1.47-.19-2.19-.36a15,15,0,0,1-1.63-.42,16.55,16.55,0,0,1-1.59-.55c-.83-.29-1.63-.61-2.44-1a3.6,3.6,0,0,1-.5-.29c-.58-.44-.68-.69-.5-1.14.05-.11.08-.21.13-.31a.85.85,0,0,1,1.06-.22c.34.11.64.27,1,.39s.65.25,1,.39.67.23,1,.36.67.25,1,.34a13.17,13.17,0,0,0,1.55.45,11.94,11.94,0,0,0,1.6.33Z"/><path class="cls-1" d="M86.3,92.41a28.47,28.47,0,0,1-.4,2.88c-.08.34-.11.7-.19,1a17.8,17.8,0,0,1-1.39,3.48c-.32.46-.54,1-.87,1.41-.21.28-.39.59-.62.85a6.66,6.66,0,0,1-.78.72c-.17.13-.3-.05-.34-.35a1.29,1.29,0,0,1,.22-1,22.27,22.27,0,0,0,1.88-3.39,9.36,9.36,0,0,0,.59-2.37A20.24,20.24,0,0,0,84.7,93c0-.56,0-1.13,0-1.7a22.47,22.47,0,0,0-.16-2.58c-.08-.66-.31-1.29-.44-1.94,0-.14-.08-.28-.1-.43-.08-.54,0-.73.39-.9a2.06,2.06,0,0,1,.26-.12c.29-.09.58.09.75.47a10.57,10.57,0,0,1,.83,3.69,23.52,23.52,0,0,1,.06,2.91Z"/><path class="cls-1" d="M108,97.91c0-.18.25-.21.54-.2.09,0,.31.13.32.19s.06.25.08.36-.12,1-.1,1.4a2.14,2.14,0,0,1-.25.88l-.35.84-.17.42c0,.13,0,.11,0,.16s0,0-.06.07a.22.22,0,0,0,.07.38s0,0,.09,0,.14,0,.2,0h.16a1.08,1.08,0,0,1,.32,0,9.83,9.83,0,0,1,1.49.52c.07,0,.16,0,.2.14.09.26.25.27.38.37a2,2,0,0,1,.47.48,1.06,1.06,0,0,1,.1.38c0,.11-.19.29-.23.3s-.14.17-.21.26l-.07.1s-.3,0-.57.07a2,2,0,0,0-.35.12.52.52,0,0,1-.17,0,2.53,2.53,0,0,0-.53,0,6.09,6.09,0,0,0-.75.08.13.13,0,0,1-.12,0l-.23-.06a3.34,3.34,0,0,1-1.09-.18,2.93,2.93,0,0,1-1-.57,1.7,1.7,0,0,1-.63-1.13.53.53,0,0,0-.08-.24,2.61,2.61,0,0,1,.15-2.12c.09-.19.14-.24.19-.35l.16-.29s.07-.05.1-.08a.63.63,0,0,0,.11-.12c.25-.45.56-.88.8-1.34.07-.1.59-.47.65-.59S108,98,108,97.91Z"/><path class="cls-1" d="M96.16,46.85a22.12,22.12,0,0,0-2.42-.65c-.3-.06-.61-.07-.92-.13a26.78,26.78,0,0,0-3.25-.48,10.44,10.44,0,0,0-1.48,0,6.58,6.58,0,0,1-1.88,0c-.4-.09.06-1.58.79-1.63a15.5,15.5,0,0,1,4,.27c.79.16,1.62.16,2.43.29a23.34,23.34,0,0,1,2.63.61c.54.15,1.06.34,1.58.52.79.29,1.56.63,2.32,1,.59.27,1.18.51,1.75.82a2.16,2.16,0,0,1,.36.22c.42.33.5.51.41.83l-.06.21c-.1.21-.39.26-.76.16a15.54,15.54,0,0,1-1.59-.51,13.64,13.64,0,0,1-1.54-.6c-.76-.32-1.54-.6-2.33-.85Z"/><path class="cls-1" d="M98.41,24.6c-.21-.08-.25-.32-.24-.63,0-.11.14-.32.22-.32a3.54,3.54,0,0,1,.46,0c.08,0,1.33.49,1.77.65a4.43,4.43,0,0,1,1.09.67,12.7,12.7,0,0,1,1.92,1.75,2.11,2.11,0,0,1,.33.49c.3.65.72,1.14,1.14,1.94.06.12.09.25.21.33a3.51,3.51,0,0,1,.45.95,3.34,3.34,0,0,1,.2.56,4.27,4.27,0,0,0,.63,1.33c0,.08.14.13.11.27-.06.3.09.44.19.62a2.24,2.24,0,0,1,.26.82c0,.14-.1.33-.24.5a.38.38,0,0,1-.36.13c-.12-.07-.23.06-.31.09a.21.21,0,0,1-.11,0,1,1,0,0,1-.34-.08l-.38-.24c-.27-.15-.54-.24-.58-.28a11.45,11.45,0,0,1-1.76-1.8,1.08,1.08,0,0,1-.15-.47l-.4-.87-.23-.45-.1-.18a1.79,1.79,0,0,0-.1-.26.6.6,0,0,1-.06-.39.24.24,0,0,0-.07-.16c-.28-.37-.53-.83-.82-1.26a7.31,7.31,0,0,0-.52-.61.52.52,0,0,1-.06-.13.68.68,0,0,0-.09-.17A11.68,11.68,0,0,0,99.21,26a8,8,0,0,0-.56-.91C98.58,25,98.49,24.62,98.41,24.6Z"/><path class="cls-1" d="M51.35,60.37a25.53,25.53,0,0,1-2.71,2.33l-.16.13-.08.05s-.09.12-.14.17a2.44,2.44,0,0,0-.3.49,6,6,0,0,0-.46,1.34,22.52,22.52,0,0,0-.33,2.27A49.28,49.28,0,0,0,47,75.67a37,37,0,0,0,.46,3.81c.15.8.28,1.61.39,2.42.06.4.1.8.14,1.21l0,.6c0,.21,0,.42,0,.62s-.1.28-.31.4a.85.85,0,0,1-.6-.17,3.27,3.27,0,0,1-1.59-2,25.54,25.54,0,0,1-.81-5.06,42.37,42.37,0,0,1-.1-5.17c.1-2.07,0-4.22.26-6.4a11.2,11.2,0,0,1,1.08-3.61,5.51,5.51,0,0,1,.62-.89,2.88,2.88,0,0,1,.44-.41l.34-.27c.44-.34.86-.68,1.28-1a20.91,20.91,0,0,0,2.77-3,16.79,16.79,0,0,0,2.87-5.39,15.11,15.11,0,0,0,.57-4.61c0-.34,0-.68,0-1a2.87,2.87,0,0,1,.11-1.34,1.77,1.77,0,0,1,.71-.65c.14-.07.26-.16.37-.21s.36,0,.6.25A1.85,1.85,0,0,1,57.17,45a16.22,16.22,0,0,1-1.58,9.44,21.6,21.6,0,0,1-4.2,6Z"/><path class="cls-1" d="M17.31,47.45a58.6,58.6,0,0,0,1.86,7.84c.29,1,.64,1.88.95,2.84,1.06,3.35,2.06,6.78,2.91,10.26.37,1.54.75,3.1,1,4.67a14.57,14.57,0,0,1-.06,6.2c-.15.64-.53.44-.89-.14a6.57,6.57,0,0,1-.77-2.58,37.55,37.55,0,0,0-.95-5.74c-.41-1.94-1-3.88-1.45-5.86-.64-2.37-1.57-4.76-2.33-7.17a78.94,78.94,0,0,1-2.15-8.13l-.24-1.28L15,47.06a25.24,25.24,0,0,1-.23-2.62,16.76,16.76,0,0,1,.32-4,28.1,28.1,0,0,1,1-3.84A15.54,15.54,0,0,1,18.9,31,6.7,6.7,0,0,1,20,30a5.39,5.39,0,0,1,1.11-.55,3.64,3.64,0,0,1,.86-.08,1.26,1.26,0,0,1,.91.5,1.79,1.79,0,0,1,.22.31c.06.17-.09.32-.33.51a3.63,3.63,0,0,1-.44.25,4.1,4.1,0,0,1-.53.36,7.63,7.63,0,0,0-2.74,3.52,24,24,0,0,0-1.58,4.92A19.44,19.44,0,0,0,17,43.54c0,.62.07,1.29.1,1.94s.18,1.31.26,2Z"/><path class="cls-1" d="M25.24,28.5A21.83,21.83,0,0,0,23.83,32c-.13.45-.19.91-.31,1.36a35.61,35.61,0,0,0-1,4.89,18.77,18.77,0,0,0-.11,2.24,9.64,9.64,0,0,1-.18,2.88c-.08.3-.5.26-.94,0a2,2,0,0,1-1-1.29,19.83,19.83,0,0,1,.5-6c.29-1.19.36-2.47.67-3.69a26.39,26.39,0,0,1,1.34-3.93A18.55,18.55,0,0,1,24,26.12a8.89,8.89,0,0,1,2.8-2.93,7.25,7.25,0,0,1,3.06-1.07,4.86,4.86,0,0,1,.66,0c.79,0,.89.16,1.14.68.05.12.12.23.17.34a.54.54,0,0,1-.1.56,1.29,1.29,0,0,1-.73.43c-.45.12-.88.22-1.23.34a7.57,7.57,0,0,0-1,.27,4.19,4.19,0,0,0-1.58,1,9.22,9.22,0,0,0-1.89,2.81Z"/><path class="cls-1" d="M33,24.33l-.29.42-.25.47c-.16.31-.35.61-.49.94-.27.67-.58,1.32-.82,2a15.57,15.57,0,0,0-.44,1.56,39.89,39.89,0,0,0-1.3,5.74,25.84,25.84,0,0,0-.19,2.63A13.25,13.25,0,0,1,29,41.54c-.09.37-.43.28-.8,0a2.64,2.64,0,0,1-.93-1.5,20.92,20.92,0,0,1-.12-3.54,18.09,18.09,0,0,1,.46-3.57c.32-1.4.45-2.9.81-4.36a18.06,18.06,0,0,1,1.84-4.61,10.76,10.76,0,0,1,.84-1.31,8.81,8.81,0,0,1,1-1.22,4.57,4.57,0,0,1,.86-.84c.32-.25.6-.5,1-.75A6.6,6.6,0,0,1,36.27,19a7.19,7.19,0,0,1,3.83.21,2.53,2.53,0,0,1,.81.43,2.06,2.06,0,0,1,.73,1,1.21,1.21,0,0,1-.15.75,2.14,2.14,0,0,1-.16.27c-.1.13-.26.15-.49.13a2.89,2.89,0,0,1-.79-.13,8.4,8.4,0,0,0-2.22-.35,6,6,0,0,0-2.26.46,1.76,1.76,0,0,0-.57.41c-.23.21-.48.39-.71.62l-.63.75a9.43,9.43,0,0,0-.56.84Z"/><path class="cls-1" d="M45.68,25.72A19.88,19.88,0,0,1,47,23.62a10.15,10.15,0,0,1,.78-1l.41-.46L48.4,22c.06,0,.11-.07.08-.14a.38.38,0,0,0,0-.1.6.6,0,0,0-.07-.18,3.08,3.08,0,0,0-.86-1.15,3.9,3.9,0,0,0-2.2-.67,2.79,2.79,0,0,0-1.67.81A11.66,11.66,0,0,0,42,22.36a23.25,23.25,0,0,0-4.17,9.08c-.45,2-.6,4-.85,6-.08.62-.57.56-1,0a4,4,0,0,1-.78-2.9,27.42,27.42,0,0,1,1.46-6.45,24.94,24.94,0,0,1,3-5.94,21.16,21.16,0,0,1,2.66-3.21,6,6,0,0,1,2-1.3,3,3,0,0,1,.69-.18l.38,0h.29l.57,0,.58.1a5.35,5.35,0,0,1,3.15,1.89,6.61,6.61,0,0,1,.52.78l.2.41.22.56A2.85,2.85,0,0,1,51,22.34a1,1,0,0,1-.08.26l0,.07h0s.13,0,.06,0h0l0,0-.08.11-.35.44c-.19.18-.42.39-.57.56l-.37.45a5.58,5.58,0,0,0-.69,1,17.08,17.08,0,0,0-2,4.58,21.78,21.78,0,0,0-.69,7.66,20.17,20.17,0,0,0,1.6,5.62c.17.4.39.76.56,1.15.67,1.43.73,2,.45,2.59a3.71,3.71,0,0,1-.19.4c-.23.35-.9,0-1.81-1A18.26,18.26,0,0,1,43.41,34.7c0-.77.1-1.54.18-2.31s.24-1.53.46-2.28a22.09,22.09,0,0,1,1.57-4.41Z"/><path class="cls-1" d="M68.91,48.07A11.13,11.13,0,0,1,67,45a.33.33,0,0,1,0-.14c0-.08-.06,0-.09-.08l-.08,0-.2,0-.8-.05c-.75,0-1.52,0-2.27,0-2.68-.1-5.38-.15-8.07,0a29.69,29.69,0,0,0-3.54.37c-.75.13-1.49.29-2.22.43s-1.46.23-2.18.33c-.45.06-.58-.39-.34-1A2.88,2.88,0,0,1,49,43.2a26.52,26.52,0,0,1,4.8-.72,42.5,42.5,0,0,1,4.79-.09c1.91.08,3.89-.1,5.85-.06.52,0,1,0,1.56.05l.79,0c.32,0,.8,0,1.19.09l.39.33.19.16.09.19a7.35,7.35,0,0,0,.49.83c.17.29.23.47.36.71s.28.47.44.69a15,15,0,0,0,2.51,2.73,19.17,19.17,0,0,0,4.81,3.09,13,13,0,0,0,2.07.71c.72.14,1.42.33,2.14.4.31,0,.62.06.94.12,1.16.14,1.51.32,1.71,1a4.34,4.34,0,0,1,.14.48c.08.52-.47.88-1.45.91a17,17,0,0,1-8.56-2.46,21.43,21.43,0,0,1-5.33-4.32Z"/><path class="cls-1" d="M69.24,17.72l4-.88,2-.46c.7-.14,1.41-.32,2.11-.42a30.1,30.1,0,0,1,3.11-.41,28.32,28.32,0,0,1,5.52.23,20.78,20.78,0,0,1,5.35,1.44,24.23,24.23,0,0,1,2.25,1.06,16.89,16.89,0,0,1,2.06,1.39A14,14,0,0,1,98,21.9c.31.44.58.91.85,1.37a7.78,7.78,0,0,1,.52,1.52c.15.65-.21.68-.88.42a6.28,6.28,0,0,1-2.32-1.5,15.87,15.87,0,0,0-9.36-5.59,21.54,21.54,0,0,0-7.22-.19,30.23,30.23,0,0,0-4,.68l-4.07.93-5,1.08c-2.55.54-5.12,1-7.66,1.46-2,.34-3.9.76-5.87,1-.43.07-.86.15-1.3.2a5.61,5.61,0,0,1-1.74,0,1.27,1.27,0,0,1-.81-.43,3.23,3.23,0,0,1-.26-.23c-.17-.2.45-.71,1.6-1l5.26-1.18c1.78-.4,3.58-.8,5.4-1.13,2.69-.54,5.4-1.09,8.09-1.71Z"/><path class="cls-1" d="M98.07,26.86a18.4,18.4,0,0,0-3-1.43c-.4-.16-.78-.23-1.17-.35a29.53,29.53,0,0,0-4.36-.88,19,19,0,0,0-2-.16A8.92,8.92,0,0,1,85,23.72c-.27-.07-.24-.24,0-.48a2.67,2.67,0,0,1,1.16-.69,4.36,4.36,0,0,1,1.34-.13c.45,0,.89,0,1.34,0a14.4,14.4,0,0,1,2.67.42c1.06.27,2.18.35,3.29.68a21.19,21.19,0,0,1,3.43,1.38,15.79,15.79,0,0,1,2,1.18,12.43,12.43,0,0,1,2.56,2.41,9.6,9.6,0,0,1,1.49,2.4,3.42,3.42,0,0,1,.22.61c.19.78,0,1.06-.59,1.22a3.2,3.2,0,0,1-.42.1.94.94,0,0,1-1-.62,10.66,10.66,0,0,0-1.81-3.38,9.67,9.67,0,0,0-2.51-2Z"/><path class="cls-1" d="M105,35a11.83,11.83,0,0,0-3-1.87c-.4-.19-.82-.33-1.23-.5a42.53,42.53,0,0,0-4.54-1.55c-.69-.18-1.4-.31-2.1-.42a17.67,17.67,0,0,1-2.68-.54c-.28-.09-.21-.37.07-.65a1.83,1.83,0,0,1,1.32-.54,14.4,14.4,0,0,1,2.84.4,21.22,21.22,0,0,1,2.77.79c1.08.4,2.26.65,3.38,1.08A18.24,18.24,0,0,1,105.41,33c.34.23.66.51,1,.76a10.92,10.92,0,0,1,.9.9A7.2,7.2,0,0,1,109,38.12a12.2,12.2,0,0,1,.18,3,2.65,2.65,0,0,1-.08.63c-.18.77-.48.93-1,1l-.31,0a.51.51,0,0,1-.4-.28,1.27,1.27,0,0,1-.21-.68c-.09-.82,0-1.55,0-2.26a6.74,6.74,0,0,0-.33-2A6,6,0,0,0,105,35Z"/><path class="cls-1" d="M103.07,47c1.33.63,2.65,1.27,4,1.83a16.59,16.59,0,0,0,1.95.72,3.44,3.44,0,0,0,1.6.2.28.28,0,0,0,.19-.11c.06,0,.06-.09.09-.27a3.25,3.25,0,0,0,0-.55c0-.21-.06-.41-.11-.63A9.21,9.21,0,0,0,108,43.92a23.42,23.42,0,0,0-4.47-3.17c-.73-.38-1.49-.72-2.24-1.07s-1.54-.58-2.31-.87c-1-.35-2-.59-3-.93a27.64,27.64,0,0,1-3-1c-.62-.27-.47-.52.16-.73a6,6,0,0,1,3-.14c1.09.25,2.15.62,3.22.94s2.11.76,3.14,1.25a24.47,24.47,0,0,1,5.83,3.58l.79.69c.26.24.5.5.75.75a15,15,0,0,1,1.41,1.65,7.18,7.18,0,0,1,1.58,4.27,2.73,2.73,0,0,1-.45,1.55,2.4,2.4,0,0,1-1.47.89,5.91,5.91,0,0,1-2.58-.25A36.56,36.56,0,0,1,104,49.75c-1.69-.71-3.35-1.46-5-2.14a45.54,45.54,0,0,0-7.78-2.52,24,24,0,0,0-6.14-.42c-.44,0-.87.09-1.32.11-1.65.15-2.17.14-2.65-.42-.1-.13-.24-.25-.32-.38-.25-.41.38-1,1.7-1.27a25,25,0,0,1,12.15.95,71.87,71.87,0,0,1,8.48,3.27Z"/><path class="cls-1" d="M109.16,86a47,47,0,0,0-.6-8.34c-.15-1-.39-2-.57-3-.33-1.79-.72-3.56-1.1-5.38s-.63-3.68-.83-5.52c-.17-1.64-.33-3.3-.39-5a20.51,20.51,0,0,1,.13-3.22A6.52,6.52,0,0,1,107,52.46c.45-.57.58-.29.62.34,0,.29.07.72.12,1.17,0,.22.08.48.08.73s0,.5-.05.78a58.36,58.36,0,0,0,.72,12.27c.39,2.47,1.2,5.07,1.67,7.66a57.56,57.56,0,0,1,1,8.69,40.72,40.72,0,0,1-.2,5.41,26,26,0,0,1-2.06,7.94c-.22.49-.41,1-.64,1.46l-.79,1.39a18,18,0,0,1-1.83,2.61,5.51,5.51,0,0,1-1,1.1,3.19,3.19,0,0,1-2.07.85,1,1,0,0,1-1-.71,1,1,0,0,1,0-.43c0-.2.28-.24.48-.34s.35-.27.73-.48a5.9,5.9,0,0,0,1.6-1.68,15.44,15.44,0,0,0,1.49-2.17l.68-1.14.54-1.23a12.49,12.49,0,0,0,.53-1.24l.41-1.29A30.13,30.13,0,0,0,109.11,86Z"/><path class="cls-1" d="M101,101.14A14.87,14.87,0,0,0,102.78,98c.15-.42.26-.84.38-1.27A22.83,22.83,0,0,0,104,92a19.54,19.54,0,0,0,.06-2.16,12,12,0,0,1,.23-2.79c.06-.29.27-.25.53,0a2.29,2.29,0,0,1,.68,1.23c.06.48.13,1,.15,1.43s0,1,0,1.44a22.29,22.29,0,0,1-.38,2.91c-.24,1.15-.37,2.38-.73,3.55a16,16,0,0,1-3.06,5.69,9.62,9.62,0,0,1-3,2.34,12.9,12.9,0,0,1-2.75,1c-.21.05-.42.11-.63.14-.8.13-1.06-.1-1.23-.55,0-.11-.08-.22-.11-.32-.07-.36.23-.69.74-.85a13.36,13.36,0,0,0,4.14-1.59,8.79,8.79,0,0,0,2.36-2.42Z"/><path class="cls-1" d="M94.27,104a11.34,11.34,0,0,0,1.11-1.55,10.37,10.37,0,0,0,.87-1.67c.15-.44.25-.92.39-1.39.47-1.66.9-3.36,1.25-5.07a22.12,22.12,0,0,0,.32-2.29,14.72,14.72,0,0,1,.44-2.93c.09-.3.29-.26.54,0a2.56,2.56,0,0,1,.67,1.38A21.23,21.23,0,0,1,99,96.66c-.36,1.2-.54,2.47-.9,3.71-.1.34-.2.68-.33,1a4.86,4.86,0,0,1-.23.57l-.25.46c-.33.62-.7,1.23-1.1,1.83a10,10,0,0,1-1.74,2.06,7.92,7.92,0,0,1-3.67,1.83,13.69,13.69,0,0,1-3.11.42c-.23,0-.45,0-.68,0a1.68,1.68,0,0,1-.87-.26,1,1,0,0,1-.28-.63c0-.11-.05-.2-.06-.27s.07-.23.26-.42a.93.93,0,0,1,.71-.32l2.47-.13a10,10,0,0,0,2.29-.47,6.43,6.43,0,0,0,2.77-2Z"/><path class="cls-1" d="M85.76,108.86a6,6,0,0,1-3.81.37,3.89,3.89,0,0,1-2.45-2,7.16,7.16,0,0,1-.46-1.16,1.65,1.65,0,0,1,.13-1.07,2.51,2.51,0,0,1,.32-.48c.11-.13.27-.33.33-.39.64-.69,1.15-1.34,1.7-2a17.83,17.83,0,0,0,3.66-8.28,21.18,21.18,0,0,0,.25-4.13c0-.88-.09-1.77-.16-2.65s-.07-1.79-.1-2.69c0-.57.23-.54.59-.12A6,6,0,0,1,87,86.56,20.89,20.89,0,0,1,86,98a22.14,22.14,0,0,1-3.51,6.22l-1,1.14-.3.32a.21.21,0,0,0-.05.25,1,1,0,0,0,.08.22l.2.37.25.31.3.24a2.5,2.5,0,0,0,1.64.31,5.71,5.71,0,0,0,3.52-1.9,17.35,17.35,0,0,0,3.15-5.93,30.26,30.26,0,0,0,1.1-5.13c.06-.39.09-.76.17-1.14.23-1.43.65-1.83,1.07-2.08a2.33,2.33,0,0,1,.28-.17c.14-.06.25.07.36.36a3.82,3.82,0,0,1,.26,1.29,21.9,21.9,0,0,1-.63,5,28.25,28.25,0,0,1-1.62,5,18,18,0,0,1-2,3.52l-.66.82a8,8,0,0,1-.85.8,8.77,8.77,0,0,1-1.92,1.16Z"/><path class="cls-1" d="M81.4,68.68c.72-.71,1.49-1.37,2.21-2,.36-.3.71-.59,1-.86A1.74,1.74,0,0,0,85,65.3c0-.32.08-.71.11-1.08.07-.82,0-1.65.11-2.48.19-2.92.33-5.86.32-8.79,0-1.3-.1-2.61-.19-3.89-.12-1.65-.39-3.27-.49-4.89,0-.51.26-.54.69-.18a3.62,3.62,0,0,1,1.22,2.08,41.39,41.39,0,0,1,.61,10.35c-.11,2.06,0,4.21-.07,6.33,0,.92-.09,1.8-.18,2.79a2.76,2.76,0,0,1-.64,1.4,7.58,7.58,0,0,1-.82.86l-1.58,1.41a17.78,17.78,0,0,0-2.73,3,17,17,0,0,0-2.57,5.62,21.71,21.71,0,0,0-.49,4.75c0,.35,0,.69,0,1,0,1.31-.17,1.72-.85,2a2.49,2.49,0,0,1-.46.19c-.51.14-.93-.42-1.06-1.45a20.09,20.09,0,0,1,0-4.71,20.57,20.57,0,0,1,1.27-4.79,19.12,19.12,0,0,1,4.11-6.26Z"/><path class="cls-1" d="M61.82,81.49c.37.45.72.9,1.06,1.36l.48.69c.1.14.08.11.09.14a.12.12,0,0,0,0,0l.07,0,.31.06.77.12c.52.08,1.06.13,1.59.19.78.08,1.56.09,2.35.16,2.77.24,5.55.44,8.34.52,1.23,0,2.47,0,3.69-.06.78,0,1.56-.11,2.34-.19l1.15-.07a10.42,10.42,0,0,0,1.14-.07c.46,0,.52.28.19.72a3.58,3.58,0,0,1-2,1.22,39.33,39.33,0,0,1-4.93.41,47.63,47.63,0,0,1-4.92-.21c-2-.18-4-.14-6-.27-1.11-.08-2.2-.16-3.32-.3-.28,0-.56-.07-.86-.13a4.4,4.4,0,0,1-.55-.11,3.83,3.83,0,0,1-.59-.24,3.84,3.84,0,0,1-.44-.46l-.27-.37-.49-.63a21.21,21.21,0,0,0-2.66-2.86A16.09,16.09,0,0,0,53.47,78a11.75,11.75,0,0,0-2.16-.6,16.33,16.33,0,0,0-2.2-.19c-.33,0-.65,0-1,0-1.2,0-1.59-.15-1.9-.73a3.72,3.72,0,0,1-.21-.39c-.16-.44.34-.85,1.35-1.06a13.81,13.81,0,0,1,4.61.16,16.55,16.55,0,0,1,4.47,1.72,19.69,19.69,0,0,1,5.4,4.52Z"/><path class="cls-1" d="M16.59,81.43a7.83,7.83,0,0,1,.25-2.64,4.66,4.66,0,0,1,1.68-2.54,3.75,3.75,0,0,1,1.77-.71,2.38,2.38,0,0,1,1.64.83,4.36,4.36,0,0,1,.31.32l.2.22.36.41c.23.27.46.53.7.78A16.75,16.75,0,0,0,25.78,80a23.07,23.07,0,0,0,10,3.9,30.86,30.86,0,0,0,4.9.41c2.09,0,4.2,0,6.32,0,.66,0,.61.38.08.79a5.66,5.66,0,0,1-2.79,1.06,33.78,33.78,0,0,1-6.67.07A25.92,25.92,0,0,1,31,84.87,23.82,23.82,0,0,1,23.51,81a17.17,17.17,0,0,1-1.7-1.59L20.51,78c-.1-.1-.24-.22-.38-.14a1.13,1.13,0,0,0-.42.25,2.59,2.59,0,0,0-.77,1.44,6.71,6.71,0,0,0,0,2.41,5.37,5.37,0,0,0,.85,2.2,11.32,11.32,0,0,0,2.71,2.73,20.56,20.56,0,0,0,3.41,2,31.24,31.24,0,0,0,5.82,2c.44.12.88.2,1.31.31,1.63.39,2.07.61,2.34,1.24l.22.42a.29.29,0,0,1,0,.32.83.83,0,0,1-.41.26,3.66,3.66,0,0,1-1.58.1,28.6,28.6,0,0,1-11.37-4.08,15.43,15.43,0,0,1-3.71-3.19,9.56,9.56,0,0,1-1.38-2.27,7.77,7.77,0,0,1-.4-1.35,11.67,11.67,0,0,1-.17-1.27Z"/><path class="cls-1" d="M21.93,93.05A11.47,11.47,0,0,0,25,94.92c.43.2.88.33,1.29.49a46.8,46.8,0,0,0,4.78,1.52,20.5,20.5,0,0,0,2.21.42,10.75,10.75,0,0,1,2.84.56c.28.12.19.5-.12.88a1.93,1.93,0,0,1-1.41.75,23.58,23.58,0,0,1-5.89-1.17c-1.15-.42-2.4-.62-3.62-1.09a18.45,18.45,0,0,1-3.76-1.9,8,8,0,0,1-2-1.88,8.19,8.19,0,0,1-1.4-3.82,20.68,20.68,0,0,1-.28-3c0-.22,0-.45,0-.66.09-.82.3-1,.9-1.11a2,2,0,0,1,.41,0c.46,0,.78.38.85.94a29.2,29.2,0,0,0,.55,4.67A5.07,5.07,0,0,0,22,93Z"/><path class="cls-1" d="M26.07,100.26a19.43,19.43,0,0,0,3.14,1.36c.4.13.87.21,1.23.31a27.26,27.26,0,0,0,4.51.71c.7.06,1.4.06,2.1.06a7,7,0,0,1,2.72.29c.28.1.2.41-.07.75s-.71.79-1.2.79a27.21,27.21,0,0,1-5.47-.11c-1.11-.2-2.32-.16-3.53-.45a20.76,20.76,0,0,1-3.65-1.26,14.32,14.32,0,0,1-2.12-1.19,7.8,7.8,0,0,1-2.53-2.84,6.69,6.69,0,0,1-.86-2.9c0-.22,0-.44,0-.67.12-.81.35-1,1-1a1.87,1.87,0,0,1,.41,0,1,1,0,0,1,.82.91,6.61,6.61,0,0,0,1.21,3.4,7.49,7.49,0,0,0,2.37,1.82Z"/><path class="cls-1" d="M47.13,107.15c1.26-.24,2.51-.57,3.8-.9s2.62-.63,3.93-.9c1-.2,1.91-.43,2.87-.6A97.87,97.87,0,0,1,68,103.56c1.53-.07,3.06-.17,4.59-.17.5,0,1,0,1.48,0l1.49.15a8.76,8.76,0,0,1,2.89.86c.58.27.35.53-.24.73a6.49,6.49,0,0,1-1.12.25,3.64,3.64,0,0,1-1.44.08,55.92,55.92,0,0,0-5.66-.11c-1.92.06-3.86.2-5.82.34a61,61,0,0,0-7.09,1.2c-1.29.27-2.58.55-3.87.86s-2.53.68-3.86,1a42.25,42.25,0,0,1-4.91,1,23.2,23.2,0,0,1-7.66-.19,15,15,0,0,1-5.54-2.3,7,7,0,0,1-1.07-.81,3.48,3.48,0,0,1-1.09-1.4,1.65,1.65,0,0,1-.12-.5,1.89,1.89,0,0,1,.11-.47,2.22,2.22,0,0,1,.11-.36c.11-.26,1-.14,1.76.57a17.74,17.74,0,0,0,4,2.43,14.21,14.21,0,0,0,4.67,1.06,27.32,27.32,0,0,0,7.52-.71Z"/><path class="cls-1" d="M108,35.64c.14.16,0,.36-.2.6-.07.07-.34.16-.4.12a1.91,1.91,0,0,1-.32-.24c-.06,0-.58-1-.76-1.4a4.89,4.89,0,0,1-.41-1,18.43,18.43,0,0,1-.57-2.15,2,2,0,0,1,0-.49,6.42,6.42,0,0,0-.18-1.65.54.54,0,0,0-.11-.26,8.34,8.34,0,0,1-.38-1.76c0-.48,0-1,0-1.44,0-.07,0-.13,0-.21s.07-.31,0-.46a2.56,2.56,0,0,1,0-.62.77.77,0,0,1,.15-.36.17.17,0,0,1,.23-.07c.08.07.14,0,.2-.05l.07,0c.16,0,.91,1,.94,1.14s.58,1.73.62,1.92a.69.69,0,0,1,0,.32c0,.07.36,1.42.38,1.47a2.12,2.12,0,0,1,0,.87.25.25,0,0,0,0,.17,14.32,14.32,0,0,1,.17,1.45l.1.73a.66.66,0,0,1,0,.14,1,1,0,0,0,0,.17,11,11,0,0,0,.32,1.71c0,.13,0,.79.1.93S108,35.58,108,35.64Z"/><path class="cls-1" d="M96.68,106.12c-.19.18-.45.13-.76,0-.1-.06-.23-.31-.18-.38a4,4,0,0,1,.33-.39,11.32,11.32,0,0,1,2-1,7.48,7.48,0,0,1,1.47-.42,26.3,26.3,0,0,1,3-.38,5,5,0,0,1,.67,0,19.52,19.52,0,0,0,2.29.06,1,1,0,0,0,.38,0,13.21,13.21,0,0,1,2.51,0c.65.14,1.3.24,1.94.35a.64.64,0,0,1,.28.07,1.06,1.06,0,0,0,.59.15,7.83,7.83,0,0,1,.83.1,1.43,1.43,0,0,1,.41.17c.12.06,0,.26,0,.28s0,.16,0,.24,0,.07,0,.09a11.27,11.27,0,0,1-1.83.38l-2.67,0a2,2,0,0,1-.42-.06c-.07,0-1.93,0-2,0a4.41,4.41,0,0,1-1.14-.11.6.6,0,0,0-.23,0c-.66,0-1.31,0-2,0-.34,0-.67,0-1,.08H101a.87.87,0,0,0-.23,0,12.39,12.39,0,0,0-2.28.42c-.09,0-.34.06-.6.1a3.68,3.68,0,0,0-.6.17C97.18,106.08,96.76,106,96.68,106.12Z"/><path class="cls-1" d="M24.93,100.77c-.15-.11-.07-.3.12-.56.06-.09.31-.23.37-.2a2.23,2.23,0,0,1,.33.2,6.85,6.85,0,0,1,.78,1.33,4.23,4.23,0,0,1,.32,1c.16.69.26,1.38.35,2.06a2.34,2.34,0,0,1,0,.46,8,8,0,0,0,0,1.55.44.44,0,0,0,.06.25,7.28,7.28,0,0,1,.06,1.69c-.09.44-.12.87-.2,1.29,0,.07,0,.13,0,.19a.46.46,0,0,0-.1.39V111a1.57,1.57,0,0,1-.05.27.19.19,0,0,1-.2.11c-.07,0-.12,0-.17.09l-.06,0a1.83,1.83,0,0,1-.42-.55,4.48,4.48,0,0,1-.33-.68,18.53,18.53,0,0,1-.32-1.85.88.88,0,0,1,0-.28s-.17-1.32-.17-1.36a1.78,1.78,0,0,1,.07-.79.38.38,0,0,0,0-.15c0-.45,0-.89,0-1.33a5.05,5.05,0,0,0-.06-.67.5.5,0,0,1,0-.12.75.75,0,0,0,0-.15,6.9,6.9,0,0,0-.27-1.53,5.34,5.34,0,0,0-.13-.8C24.91,101.12,25,100.81,24.93,100.77Z"/><path class="cls-1" d="M28.25,23.48c.13-.1.27,0,.42.33a.75.75,0,0,1,0,.43,1.27,1.27,0,0,1-.21.25s-.82.31-1.09.4a3.12,3.12,0,0,1-.79.18c-.54.07-1.08.14-1.63.19a1.45,1.45,0,0,1-.36,0,3.9,3.9,0,0,0-1.23,0,.34.34,0,0,0-.21.06,4.35,4.35,0,0,1-1.36.1c-.35-.11-.71-.18-1.06-.26-.05,0-.11,0-.15-.06a.35.35,0,0,0-.33-.14,2,2,0,0,1-.46-.09.7.7,0,0,1-.22-.18c-.07-.07,0-.3,0-.33s0-.18,0-.28a.33.33,0,0,1,0-.1,4,4,0,0,1,1-.47l.67-.07c.34,0,.69-.08.76-.1a.48.48,0,0,1,.23.05s1-.11,1.08-.11c.21,0,.41,0,.62.09a.21.21,0,0,0,.13,0,7.65,7.65,0,0,1,1.07,0,4.87,4.87,0,0,0,.54,0l.1,0a.32.32,0,0,0,.13,0,9.34,9.34,0,0,0,1.29-.1,5.12,5.12,0,0,0,.69,0C28,23.35,28.2,23.52,28.25,23.48Z"/></g></svg>